<svg width="1073" height="209" viewBox="0 0 1073 209" fill="none" xmlns="http://www.w3.org/2000/svg">
<path d="M952.511 135.477L959.851 99.897H992.947C998.505 99.897 1003.48 98.57 1007.88 95.9161C1012.27 93.2622 1015.72 89.7373 1018.21 85.3417C1020.78 80.9461 1022.06 76.0527 1022.06 70.6619C1022.06 65.6857 1020.94 61.539 1018.7 58.2214C1016.46 54.9039 1013.48 52.4158 1009.74 50.7572C1006.09 49.0985 1002.07 48.2691 997.675 48.2691H967.939L975.279 11.9429H999.914C1012.11 11.9429 1022.89 14.2236 1032.26 18.7851C1041.72 23.2637 1049.1 29.7328 1054.41 38.1923C1059.72 46.5688 1062.37 56.6872 1062.37 68.547C1062.37 81.4021 1059.3 92.889 1053.17 103.007C1047.11 113.125 1038.73 121.087 1028.03 126.893C1017.33 132.615 1005.02 135.477 991.082 135.477H952.511ZM908.218 195.315L945.046 11.9429H986.603L949.774 195.315H908.218Z" fill="#5555FF"/>
<path d="M687.248 195.315L724.076 11.9429H752.069L793.254 100.892H794.249L874.127 11.9429H908.092L871.389 195.315H829.957L842.15 134.606L855.464 81.9828H854.468L789.147 157.621H781.184L749.707 86.4613H748.337L740.499 134.606L728.927 195.315H687.248Z" fill="#5555FF"/>
<path d="M652.782 106.242C646.312 106.242 640.796 103.961 636.235 99.3994C631.673 94.8378 629.391 89.3226 629.391 82.8536C629.391 76.3845 631.673 70.8693 636.235 66.3077C640.796 61.7461 646.312 59.4655 652.782 59.4655C659.252 59.4655 664.768 61.7461 669.331 66.3077C673.892 70.8693 676.173 76.3845 676.173 82.8536C676.173 89.3226 673.892 94.8378 669.331 99.3994C664.768 103.961 659.252 106.242 652.782 106.242ZM634.742 197.306C628.272 197.306 622.756 195.025 618.193 190.464C613.631 185.902 611.351 180.387 611.351 173.918C611.351 167.449 613.631 161.934 618.193 157.372C622.756 152.81 628.272 150.53 634.742 150.53C641.212 150.53 646.726 152.81 651.289 157.372C655.852 161.934 658.133 167.449 658.133 173.918C658.133 180.387 655.852 185.902 651.289 190.464C646.726 195.025 641.212 197.306 634.742 197.306Z" fill="#5555FF"/>
<path d="M432.933 195.315L469.761 11.9429H523.511C539.436 11.9429 553.33 15.5921 565.19 22.8905C577.051 30.189 586.258 40.0998 592.812 52.6232C599.447 65.1467 602.765 79.3703 602.765 95.2941C602.765 109.227 600.319 122.248 595.425 134.357C590.53 146.466 583.604 157.082 574.646 166.205C565.772 175.328 555.279 182.46 543.169 187.602C531.141 192.744 517.911 195.315 503.478 195.315H432.933ZM481.705 158.989H508.455C516.501 158.989 523.799 157.206 530.353 153.64C536.906 149.991 542.546 145.097 547.274 138.96C552.085 132.823 555.776 125.939 558.348 118.309C560.918 110.596 562.204 102.634 562.204 94.4232C562.204 85.5491 560.588 77.67 557.353 70.7863C554.118 63.8197 549.39 58.3458 543.169 54.3649C537.03 50.3009 529.564 48.2691 520.773 48.2691H504.101L481.705 158.989Z" fill="white"/>
<path d="M323.194 135.477L330.534 99.897H363.63C369.188 99.897 374.164 98.57 378.56 95.9161C382.956 93.2622 386.399 89.7373 388.888 85.3417C391.458 80.9461 392.744 76.0527 392.744 70.6619C392.744 65.6857 391.625 61.539 389.386 58.2214C387.146 54.9039 384.16 52.4158 380.427 50.7572C376.776 49.0985 372.753 48.2691 368.358 48.2691H338.622L345.962 11.9429H370.597C382.79 11.9429 393.574 14.2236 402.946 18.7851C412.402 23.2637 419.784 29.7328 425.093 38.1923C430.402 46.5688 433.056 56.6872 433.056 68.547C433.056 81.4021 429.986 92.889 423.849 103.007C417.793 113.125 409.416 121.087 398.716 126.893C388.016 132.615 375.699 135.477 361.764 135.477H323.194ZM278.9 195.315L315.729 11.9429H357.285L320.457 195.315H278.9Z" fill="white"/>
<path d="M197.778 197.306C186.331 197.306 176.087 195.274 167.046 191.21C158.005 187.146 150.581 181.755 144.775 175.038C138.968 168.237 135.194 160.855 133.452 152.893L174.511 136.223C175.175 140.453 176.709 144.393 179.115 148.042C181.52 151.691 184.548 154.635 188.197 156.874C191.847 159.114 195.911 160.233 200.39 160.233C204.288 160.233 207.772 159.363 210.842 157.621C213.911 155.879 216.316 153.557 218.058 150.654C219.883 147.668 220.795 144.393 220.795 140.826C220.795 136.016 219.218 132.035 216.067 128.883C212.997 125.649 208.976 122.705 203.999 120.051C199.104 117.397 193.879 114.66 188.322 111.84C182.847 108.937 177.622 105.537 172.645 101.639C167.751 97.6578 163.728 92.7646 160.576 86.9589C157.507 81.0705 155.972 73.8134 155.972 65.1881C155.972 53.9917 158.71 44.2881 164.184 36.0774C169.659 27.7837 177.082 21.3562 186.455 16.7947C195.911 12.2331 206.488 9.95239 218.183 9.95239C228.716 9.95239 238.091 11.6941 246.302 15.1774C254.514 18.5778 261.233 23.1807 266.458 28.9863C271.766 34.7919 275.126 41.2194 276.535 48.2691L237.344 64.0685C236.763 61.1658 235.56 58.4288 233.735 55.8577C231.909 53.2038 229.463 51.089 226.395 49.5131C223.409 47.8544 219.883 47.025 215.818 47.025C212.086 47.025 208.809 47.7714 205.99 49.2643C203.169 50.6742 200.93 52.6232 199.271 55.1113C197.695 57.5164 196.907 60.3363 196.907 63.5708C196.907 68.0494 198.441 71.8646 201.511 75.0161C204.662 78.1676 208.686 81.0705 213.579 83.7244C218.556 86.2955 223.781 89.0324 229.256 91.9351C234.814 94.755 240.039 98.1968 244.933 102.261C249.909 106.242 253.933 111.218 257.002 117.189C260.154 123.161 261.73 130.542 261.73 139.333C261.73 150.696 258.951 160.731 253.393 169.439C247.919 178.148 240.37 184.99 230.749 189.966C221.128 194.859 210.137 197.306 197.778 197.306Z" fill="white"/>
<path d="M12.1426 195.315L48.8466 11.9429H90.4029L60.9153 158.989H121.384L114.043 195.315H12.1426Z" fill="white"/>
<path d="M999.915 1.99048V11.9429H945.046L908.218 195.315H949.774L961.792 135.477H991.082C1005.02 135.477 1017.33 132.615 1028.03 126.893C1038.73 121.087 1047.11 113.125 1053.17 103.007C1059.3 92.889 1062.37 81.4021 1062.37 68.547C1062.37 56.6872 1059.72 46.5688 1054.41 38.1923C1049.1 29.7327 1041.72 23.2637 1032.26 18.7851C1022.89 14.2236 1012.11 11.9429 999.915 11.9429V1.99048C1013.36 1.99048 1025.68 4.51058 1036.62 9.83576C1047.65 15.0787 1056.47 22.7677 1062.82 32.8661L1063.42 33.8323C1069.5 43.8783 1072.33 55.5922 1072.33 68.547C1072.33 83.0383 1068.85 96.3207 1061.71 108.115C1054.71 119.815 1045 129.013 1032.78 135.64L1032.75 135.654L1032.73 135.669C1020.38 142.272 1006.41 145.429 991.082 145.429H969.944L957.926 205.268H896.067L936.892 1.99048H999.915ZM1012.11 70.6619C1012.11 67.1853 1011.34 65.1025 1010.45 63.7906C1009.28 62.0529 1007.77 60.7694 1005.7 59.8522L1005.62 59.8174C1003.39 58.8015 1000.79 58.2214 997.675 58.2214H987.459L981.088 89.9446H992.947V99.897H968.939L979.307 48.269H997.675C1002.07 48.269 1006.09 49.0985 1009.74 50.7571C1013.48 52.4158 1016.46 54.9039 1018.7 58.2214C1020.94 61.539 1022.06 65.6857 1022.06 70.6619C1022.06 76.0527 1020.78 80.9461 1018.21 85.3417C1015.72 89.7372 1012.27 93.2622 1007.88 95.9161C1003.48 98.57 998.505 99.897 992.947 99.897V89.9446C996.845 89.9446 1000.02 89.0364 1002.73 87.3962C1005.69 85.6108 1007.91 83.3211 1009.54 80.4393L1009.58 80.3772L1009.61 80.3169C1011.24 77.536 1012.11 74.3942 1012.11 70.6619Z" fill="#111155"/>
<path d="M758.43 1.99048L796.276 83.7342L869.685 1.99048H920.236L879.547 205.268H817.807L832.439 132.404L835.903 118.703L793.703 167.573H774.702L753.146 118.845L750.3 136.338L750.276 136.468L737.163 205.268H675.096L715.922 1.99048H758.43ZM724.076 11.9429L687.248 195.315H728.927L740.499 134.606L748.337 86.4613H749.707L781.184 157.621H789.147L854.468 81.9827H855.464L842.15 134.606L829.957 195.315H871.389L908.092 11.9429H874.127L794.249 100.892H793.254L752.069 11.9429H724.076Z" fill="#111155"/>
<path d="M658.133 173.918C658.133 167.449 655.852 161.934 651.289 157.372C646.726 152.81 641.212 150.53 634.742 150.53C628.272 150.53 622.756 152.81 618.193 157.372C613.631 161.934 611.351 167.449 611.351 173.918C611.351 180.387 613.631 185.902 618.193 190.464C622.756 195.025 628.272 197.306 634.742 197.306C641.212 197.306 646.726 195.025 651.289 190.464C655.852 185.902 658.133 180.387 658.133 173.918ZM676.173 82.8535C676.173 76.3845 673.892 70.8693 669.331 66.3077C664.768 61.7461 659.252 59.4654 652.782 59.4654C646.312 59.4654 640.796 61.7461 636.235 66.3077C631.673 70.8693 629.391 76.3845 629.391 82.8535C629.391 89.3226 631.673 94.8378 636.235 99.3994C640.796 103.961 646.312 106.242 652.782 106.242C659.252 106.242 664.768 103.961 669.331 99.3994C673.892 94.8378 676.173 89.3226 676.173 82.8535ZM668.087 173.918C668.087 183.018 664.762 191.066 658.326 197.5C651.892 203.934 643.844 207.258 634.742 207.258C625.641 207.258 617.59 203.934 611.156 197.5C604.722 191.066 601.398 183.018 601.398 173.918C601.398 164.818 604.722 156.769 611.156 150.335C617.59 143.901 625.641 140.577 634.742 140.577C643.844 140.577 651.892 143.901 658.326 150.335C664.762 156.769 668.087 164.818 668.087 173.918ZM686.127 82.8535C686.127 91.9538 682.802 100.002 676.368 106.436C669.932 112.87 661.884 116.194 652.782 116.194C643.681 116.194 635.632 112.87 629.196 106.436C622.762 100.002 619.437 91.9538 619.437 82.8535C619.437 73.7533 622.762 65.705 629.196 59.271C635.632 52.8372 643.681 49.5131 652.782 49.5131C661.884 49.5131 669.932 52.8372 676.368 59.271C682.802 65.705 686.127 73.7533 686.127 82.8535Z" fill="#111155"/>
<path d="M523.511 1.99048V11.9429H469.761L432.933 195.315H503.478C517.911 195.315 531.141 192.744 543.169 187.602C555.279 182.46 565.772 175.328 574.646 166.205C583.604 157.082 590.53 146.466 595.425 134.357C600.319 122.248 602.765 109.227 602.765 95.294C602.765 79.3702 599.447 65.1467 592.812 52.6232C586.258 40.0997 577.051 30.189 565.19 22.8905C553.33 15.5921 539.436 11.9429 523.511 11.9429V1.99048C541.007 1.99048 556.762 6.01942 570.406 14.4154C583.82 22.6679 594.261 33.9237 601.632 48.0105C609.102 62.1273 612.719 77.9681 612.719 95.294C612.719 110.419 610.057 124.714 604.652 138.085C599.287 151.363 591.657 163.075 581.779 173.142L581.781 173.144C571.957 183.242 560.357 191.111 547.079 196.752C533.693 202.475 519.115 205.268 503.478 205.268H420.781L461.607 1.99048H523.511ZM552.251 94.4232C552.251 86.7696 550.861 80.3742 548.343 75.0181L548.333 74.9986L548.323 74.9773C545.852 69.6553 542.363 65.6648 537.802 62.7466L537.736 62.7058L537.673 62.663C533.458 59.8731 527.996 58.2214 520.773 58.2214H512.241L493.873 149.037H508.455V158.989H481.705L504.101 48.269H520.773C529.564 48.269 537.03 50.3009 543.169 54.3649C549.39 58.3458 554.118 63.8196 557.353 70.7863C560.588 77.67 562.204 85.5491 562.204 94.4232C562.204 102.634 560.918 110.596 558.348 118.309C555.776 125.939 552.085 132.823 547.274 138.96C542.546 145.097 536.906 149.991 530.353 153.64C523.799 157.206 516.501 158.989 508.455 158.989V149.037C514.96 149.037 520.592 147.612 525.565 144.912C530.872 141.946 535.473 137.972 539.389 132.888L539.44 132.821C543.531 127.602 546.692 121.726 548.914 115.131C551.138 108.452 552.251 101.564 552.251 94.4232Z" fill="#111155"/>
<path d="M370.597 1.99048V11.9429H315.729L278.9 195.315H320.457L332.475 135.477H361.764C375.699 135.477 388.016 132.615 398.716 126.893C409.416 121.087 417.793 113.125 423.849 103.007C429.986 92.889 433.056 81.4021 433.056 68.547C433.056 56.6872 430.402 46.5688 425.093 38.1923C419.784 29.7327 412.402 23.2637 402.946 18.7851C393.574 14.2236 382.79 11.9429 370.597 11.9429V1.99048C384.044 1.99048 396.361 4.51058 407.304 9.83576C418.331 15.0787 427.156 22.7677 433.502 32.8661L434.101 33.8323C440.187 43.8783 443.01 55.5922 443.01 68.547C443.01 83.0383 439.532 96.3207 432.389 108.115C425.388 119.815 415.679 129.013 403.464 135.64L403.436 135.654L403.412 135.669C391.066 142.272 377.091 145.429 361.764 145.429H340.627L328.609 205.268H266.749L307.575 1.99048H370.597ZM382.79 70.6619C382.79 67.1853 382.02 65.1025 381.134 63.7906C379.961 62.0529 378.449 60.7694 376.384 59.8522L376.307 59.8174C374.071 58.8015 371.471 58.2214 368.358 58.2214H358.141L351.771 89.9446H363.63V99.897H339.621L349.989 48.269H368.358C372.753 48.269 376.776 49.0985 380.427 50.7571C384.16 52.4158 387.146 54.9039 389.386 58.2214C391.625 61.539 392.744 65.6857 392.744 70.6619C392.744 76.0527 391.458 80.9461 388.888 85.3417C386.399 89.7372 382.956 93.2622 378.56 95.9161C374.164 98.57 369.188 99.897 363.63 99.897V89.9446C367.527 89.9446 370.699 89.0364 373.416 87.3962C376.374 85.6108 378.592 83.3211 380.224 80.4393L380.26 80.3772L380.294 80.3169C381.92 77.536 382.79 74.3942 382.79 70.6619Z" fill="#111155"/>
<path d="M184.344 134.682C184.783 137.476 185.786 140.077 187.425 142.564C189.046 145.022 191.023 146.931 193.403 148.392C195.413 149.624 197.661 150.281 200.39 150.281V160.233C195.911 160.233 191.847 159.114 188.197 156.874C184.548 154.635 181.52 151.691 179.115 148.042C176.709 144.393 175.175 140.453 174.511 136.223L133.452 152.893C135.194 160.855 138.968 168.237 144.775 175.037C150.581 181.755 158.005 187.146 167.046 191.21C176.087 195.274 186.331 197.306 197.778 197.306C210.137 197.306 221.128 194.859 230.749 189.966C240.37 184.99 247.919 178.148 253.393 169.439C258.951 160.731 261.73 150.696 261.73 139.333C261.73 130.542 260.154 123.161 257.002 117.189C253.933 111.218 249.909 106.242 244.933 102.261C240.039 98.1968 234.814 94.755 229.256 91.9351C223.781 89.0324 218.556 86.2955 213.579 83.7244C208.686 81.0705 204.662 78.1676 201.511 75.0161C198.441 71.8645 196.907 68.0494 196.907 63.5708C196.907 60.3363 197.695 57.5164 199.271 55.1113C200.93 52.6232 203.169 50.6741 205.99 49.2643C208.809 47.7714 212.086 47.025 215.818 47.025C219.883 47.025 223.409 47.8544 226.395 49.5131C229.463 51.089 231.909 53.2038 233.735 55.8577C235.56 58.4288 236.763 61.1657 237.344 64.0685L276.535 48.269C275.126 41.2194 271.766 34.7919 266.458 28.9863C261.233 23.1807 254.514 18.5778 246.302 15.1774C238.091 11.694 228.716 9.95238 218.183 9.95238C206.488 9.95238 195.911 12.2331 186.455 16.7946C177.082 21.3562 169.659 27.7837 164.184 36.0774C158.71 44.2881 155.972 53.9917 155.972 65.1881C155.972 73.8134 157.507 81.0705 160.576 86.9589C163.728 92.7645 167.751 97.6577 172.645 101.639C177.622 105.537 182.847 108.937 188.322 111.84C193.879 114.66 199.104 117.397 203.999 120.051C208.976 122.704 212.997 125.649 216.067 128.883C219.218 132.035 220.795 136.016 220.795 140.826C220.795 144.393 219.883 147.668 218.058 150.654C216.316 153.557 213.911 155.879 210.842 157.621C207.772 159.362 204.288 160.233 200.39 160.233V150.281C202.751 150.281 204.511 149.77 205.928 148.965C207.571 148.033 208.701 146.903 209.524 145.534L209.544 145.499L209.565 145.464C210.415 144.072 210.842 142.598 210.842 140.826C210.842 138.424 210.159 137.048 209.03 135.92L208.936 135.829L208.847 135.733C206.679 133.449 203.585 131.11 199.315 128.833L199.283 128.815L199.254 128.8C194.448 126.194 189.303 123.499 183.817 120.715L183.738 120.675L183.658 120.632C177.655 117.449 171.937 113.727 166.507 109.474L166.433 109.416L166.363 109.36C160.414 104.52 155.57 98.6004 151.828 91.7076L151.789 91.6338L151.75 91.5579C147.753 83.8886 146.019 74.9518 146.019 65.1881C146.019 52.2998 149.196 40.6159 155.903 30.557C162.406 20.7193 171.218 13.1407 182.099 7.84528L182.114 7.8375L182.13 7.83167C193.082 2.54849 205.162 0 218.183 0C229.783 0 240.485 1.91595 250.109 5.98309C250.116 5.98687 250.128 5.99097 250.136 5.99476C250.154 6.00198 250.172 6.00889 250.19 6.01613C259.523 9.89249 267.482 15.2676 273.802 22.2704C280.216 29.2841 284.498 37.3242 286.296 46.3174L287.914 54.4115L229.937 77.786L227.581 66.0201C227.293 64.5758 226.688 63.1236 225.619 61.6174L225.533 61.4968C224.707 60.2965 223.558 59.2453 221.846 58.3671L221.703 58.2915L221.562 58.2137C220.311 57.5194 218.512 56.9774 215.818 56.9774C213.433 56.9774 211.807 57.4463 210.646 58.06L210.545 58.1145L210.441 58.1651C209.104 58.8341 208.224 59.6398 207.581 60.5891C207.202 61.1759 206.86 62.0443 206.86 63.5708C206.86 65.4928 207.411 66.7948 208.614 68.0416C210.933 70.3448 214.096 72.6788 218.293 74.9577C223.214 77.5 228.368 80.2013 233.761 83.0596L234.925 83.6603C240.722 86.7061 246.181 90.3591 251.291 94.604C257.329 99.4663 262.162 105.489 265.803 112.544C269.906 120.314 271.684 129.396 271.684 139.333C271.684 152.372 268.473 164.283 261.82 174.734C255.348 185.027 246.434 193.059 235.321 198.807L235.292 198.822L235.262 198.838C224.052 204.539 211.477 207.258 197.778 207.258C185.141 207.258 173.473 205.011 162.965 200.288C152.755 195.699 144.103 189.483 137.243 181.545L137.204 181.499C130.44 173.576 125.853 164.734 123.728 155.02L121.936 146.827L182.398 122.278L184.344 134.682Z" fill="#111155"/>
<path d="M102.551 1.99048L73.0637 149.037H133.549L122.186 205.268H0L40.6874 1.99048H102.551ZM48.8466 11.9429L12.1426 195.315H114.043L121.384 158.989H60.9153L90.4029 11.9429H48.8466Z" fill="#111155"/>
</svg>
